<mxfile host="app.diagrams.net" modified="2022-08-15T23:49:51.254Z" agent="5.0 (Windows NT 10.0; Win64; x64) AppleWebKit/537.36 (KHTML, like Gecko) Chrome/89.0.4389.91 Safari/537.36" etag="jL_TSdAL5SFZqXy83xiw" version="20.2.4" type="github">
  <diagram id="C5RBs43oDa-KdzZeNtuy" name="Page-1">
    <mxGraphModel dx="2062" dy="1132" grid="1" gridSize="10" guides="1" tooltips="1" connect="1" arrows="1" fold="1" page="1" pageScale="1" pageWidth="827" pageHeight="1169" math="0" shadow="0">
      <root>
        <mxCell id="WIyWlLk6GJQsqaUBKTNV-0" />
        <mxCell id="WIyWlLk6GJQsqaUBKTNV-1" parent="WIyWlLk6GJQsqaUBKTNV-0" />
        <mxCell id="WIyWlLk6GJQsqaUBKTNV-3" value="When a Called Phone Dials" style="rounded=1;whiteSpace=wrap;html=1;fontSize=12;glass=0;strokeWidth=1;shadow=0;" parent="WIyWlLk6GJQsqaUBKTNV-1" vertex="1">
          <mxGeometry x="10" y="10" width="150" height="60" as="geometry" />
        </mxCell>
        <mxCell id="zRHetzy9wdYKqyNyWC3m-5" value="301-250-7200&lt;br&gt;ATTC Event Services" style="rounded=1;whiteSpace=wrap;html=1;" vertex="1" parent="WIyWlLk6GJQsqaUBKTNV-1">
          <mxGeometry x="10" y="120" width="150" height="60" as="geometry" />
        </mxCell>
        <mxCell id="zRHetzy9wdYKqyNyWC3m-6" value="301-250-7201&lt;br&gt;Sales" style="rounded=1;whiteSpace=wrap;html=1;" vertex="1" parent="WIyWlLk6GJQsqaUBKTNV-1">
          <mxGeometry x="10" y="280" width="150" height="60" as="geometry" />
        </mxCell>
        <mxCell id="zRHetzy9wdYKqyNyWC3m-7" value="301-250-7202&lt;br&gt;Support" style="rounded=1;whiteSpace=wrap;html=1;" vertex="1" parent="WIyWlLk6GJQsqaUBKTNV-1">
          <mxGeometry x="10" y="440" width="150" height="60" as="geometry" />
        </mxCell>
        <mxCell id="zRHetzy9wdYKqyNyWC3m-12" value="301-250-7238&lt;br&gt;Priority CC" style="rounded=1;whiteSpace=wrap;html=1;" vertex="1" parent="WIyWlLk6GJQsqaUBKTNV-1">
          <mxGeometry x="10" y="600" width="150" height="60" as="geometry" />
        </mxCell>
        <mxCell id="zRHetzy9wdYKqyNyWC3m-14" value="301-250-7250&lt;br&gt;Intellor" style="rounded=1;whiteSpace=wrap;html=1;" vertex="1" parent="WIyWlLk6GJQsqaUBKTNV-1">
          <mxGeometry x="10" y="760" width="150" height="60" as="geometry" />
        </mxCell>
        <mxCell id="zRHetzy9wdYKqyNyWC3m-16" value="855-717-0404&lt;br&gt;USDA FLF Support" style="rounded=1;whiteSpace=wrap;html=1;" vertex="1" parent="WIyWlLk6GJQsqaUBKTNV-1">
          <mxGeometry x="10" y="920" width="150" height="60" as="geometry" />
        </mxCell>
        <mxCell id="zRHetzy9wdYKqyNyWC3m-18" value="" style="endArrow=none;html=1;rounded=0;exitX=0.5;exitY=0;exitDx=0;exitDy=0;" edge="1" parent="WIyWlLk6GJQsqaUBKTNV-1" source="zRHetzy9wdYKqyNyWC3m-5">
          <mxGeometry width="50" height="50" relative="1" as="geometry">
            <mxPoint x="84.71000000000001" y="110" as="sourcePoint" />
            <mxPoint x="85.21000000000001" y="70" as="targetPoint" />
          </mxGeometry>
        </mxCell>
        <mxCell id="zRHetzy9wdYKqyNyWC3m-21" value="" style="endArrow=none;html=1;rounded=0;entryX=0.5;entryY=1;entryDx=0;entryDy=0;" edge="1" parent="WIyWlLk6GJQsqaUBKTNV-1">
          <mxGeometry width="50" height="50" relative="1" as="geometry">
            <mxPoint x="84.71000000000001" y="440" as="sourcePoint" />
            <mxPoint x="84.71000000000001" y="340" as="targetPoint" />
          </mxGeometry>
        </mxCell>
        <mxCell id="zRHetzy9wdYKqyNyWC3m-22" value="" style="endArrow=none;html=1;rounded=0;entryX=0.5;entryY=1;entryDx=0;entryDy=0;" edge="1" parent="WIyWlLk6GJQsqaUBKTNV-1">
          <mxGeometry width="50" height="50" relative="1" as="geometry">
            <mxPoint x="84.71000000000001" y="600" as="sourcePoint" />
            <mxPoint x="84.71000000000001" y="500" as="targetPoint" />
          </mxGeometry>
        </mxCell>
        <mxCell id="zRHetzy9wdYKqyNyWC3m-23" value="" style="endArrow=none;html=1;rounded=0;entryX=0.5;entryY=1;entryDx=0;entryDy=0;" edge="1" parent="WIyWlLk6GJQsqaUBKTNV-1">
          <mxGeometry width="50" height="50" relative="1" as="geometry">
            <mxPoint x="84.71000000000001" y="760" as="sourcePoint" />
            <mxPoint x="84.71000000000001" y="660" as="targetPoint" />
          </mxGeometry>
        </mxCell>
        <mxCell id="zRHetzy9wdYKqyNyWC3m-24" value="" style="endArrow=none;html=1;rounded=0;entryX=0.5;entryY=1;entryDx=0;entryDy=0;" edge="1" parent="WIyWlLk6GJQsqaUBKTNV-1">
          <mxGeometry width="50" height="50" relative="1" as="geometry">
            <mxPoint x="84.71000000000001" y="920" as="sourcePoint" />
            <mxPoint x="84.71000000000001" y="820" as="targetPoint" />
          </mxGeometry>
        </mxCell>
        <mxCell id="zRHetzy9wdYKqyNyWC3m-25" value="" style="endArrow=none;html=1;rounded=0;entryX=0.5;entryY=1;entryDx=0;entryDy=0;" edge="1" parent="WIyWlLk6GJQsqaUBKTNV-1">
          <mxGeometry width="50" height="50" relative="1" as="geometry">
            <mxPoint x="84.71000000000001" y="280" as="sourcePoint" />
            <mxPoint x="84.71000000000001" y="180" as="targetPoint" />
          </mxGeometry>
        </mxCell>
        <mxCell id="zRHetzy9wdYKqyNyWC3m-27" value="This Extension Rings:" style="rounded=1;whiteSpace=wrap;html=1;" vertex="1" parent="WIyWlLk6GJQsqaUBKTNV-1">
          <mxGeometry x="200" y="10" width="160" height="60" as="geometry" />
        </mxCell>
      </root>
    </mxGraphModel>
  </diagram>
</mxfile>
